<svg width="300" height="300" viewBox="0 0 300 300" fill="none" xmlns="http://www.w3.org/2000/svg">
<path d="M83.0657 101.165L65.0481 101.167C61.5665 101.169 52.9283 102.736 53.1267 97.8779C53.5046 88.633 51.196 78.726 58.0707 71.1709C61.9977 66.8561 65.6212 65.2863 71.1465 64.9189L191.029 64.94C202.729 64.9705 212.689 72.1506 212.393 84.4981C217.526 80.4709 220.538 73.9219 227.266 74.0584C232.166 74.0227 243.355 86.3068 245.606 89.8219C249.494 95.8939 243.618 100.992 239.874 104.729L219.872 124.675C217.416 127.148 214.988 129.706 212.393 132.025V207.894L212.403 215.838C212.386 228.598 207.594 234.566 194.441 234.607L107.516 234.611C104.09 234.619 100.062 234.79 96.7251 234.39C90.3266 233.623 84.1333 227.347 83.3657 220.954C82.8665 216.799 83.0622 211.796 83.0663 207.493L83.0657 101.165ZM83.978 70.7689C89.7911 79.224 88.8032 82.9272 88.7997 92.7188L88.7956 187.331C91.6678 187.359 109.926 187.007 111.501 187.543C113.122 188.093 130.231 205.056 133.145 208.057C135.065 210.034 134.673 211.798 132.716 213.54C127.264 218.392 119.646 223.688 114.794 228.739L189.765 228.748C206.217 228.764 206.575 226.915 206.564 212.316L206.554 137.887C203.793 140.825 200.621 143.985 197.731 146.813L189.478 155.075C188.131 156.439 186.779 158.246 185.195 159.324C182.66 161.047 160.434 166.676 154.537 166.683L114.729 166.687C111.463 166.687 108.062 167.702 107.019 163.773C107.55 161.72 107.987 160.884 110.26 160.856C115.55 160.791 120.845 160.818 126.136 160.817L157.104 160.822C159.024 152.766 159.589 144.051 161.666 135.803C161.794 135.295 166.937 130.459 167.579 129.809L197.294 100.185C199.348 98.1094 205.275 92.6871 206.554 90.508C207.118 85.6008 207.078 80.291 203.9 76.2879C198.364 69.3123 190.482 70.7631 182.624 70.7631L83.978 70.7689ZM69.878 70.7689C60.7063 73.0799 58.9538 79.5105 58.9667 87.6041L58.9889 95.3766H72.2001H83.0657L83.0721 88.6066C83.061 79.5639 80.9294 70.4965 69.878 70.7689ZM225.867 79.8451C224.531 80.8301 221.463 84.0809 220.125 85.3945C224.533 90.1635 230.757 95.9678 235.452 100.45C235.765 100.475 243.775 95.7557 238.97 90.815L233.569 85.34C231.413 83.127 229.23 79.7115 225.867 79.8451ZM216.21 89.6367C200.169 105.195 184.74 121.769 168.542 137.111C170.169 138.808 172.237 141.033 174.135 142.368C175.78 141.013 177.618 139.055 179.148 137.515L212.237 104.614C215.091 101.835 218.602 97.6436 221.643 95.3766C220.046 93.4119 217.956 91.5352 216.21 89.6367ZM225.867 99.4318L190.199 134.886C186.21 138.865 182.086 142.789 178.148 146.813L183.746 152.301C186.434 149.48 189.243 146.932 191.977 144.175L226.896 109.266C228.209 107.954 230.161 106.083 231.293 104.648C229.449 103.024 227.778 100.913 225.867 99.4318ZM166.173 143.35C165.139 148.47 164.056 154.107 163.483 159.268L172.843 156.711L178.148 155.288C175.455 152.372 169.261 145.596 166.173 143.35ZM88.7956 193.042L88.7885 208.217C88.7885 223.85 88.9708 229.601 106.402 228.739C110.221 225.032 113.268 222.23 117.423 218.814C120.434 216.246 124.663 212.975 127.391 210.369C121.292 204.747 115.309 198.916 109.449 193.042H88.7956Z" fill="url(#paint0_linear_256_3203)"/>
<path d="M152.425 129.972L122.318 129.976C118.235 129.975 112.962 130.193 109.009 129.748C106.995 129.521 105.9 125.702 109.449 124.089C110.825 124.013 112.843 124.084 114.269 124.084L142.449 124.085C144.951 124.086 152.966 123.25 154.145 125.719C155.004 127.516 154.16 129.171 152.425 129.972Z" fill="url(#paint1_linear_256_3203)"/>
<path d="M148.395 148.331L124.429 148.335C121.869 148.334 110.306 148.86 108.569 147.872C106.197 146.523 106.724 142.903 109.449 142.368L134.382 142.365C138.74 142.365 143.104 142.325 147.461 142.425C151.982 142.529 152.193 147.398 148.395 148.331Z" fill="url(#paint2_linear_256_3203)"/>
<defs>
<linearGradient id="paint0_linear_256_3203" x1="149.964" y1="64.9189" x2="149.964" y2="234.654" gradientUnits="userSpaceOnUse">
<stop stop-color="#017BC5"/>
<stop offset="1" stop-color="#003B5F"/>
</linearGradient>
<linearGradient id="paint1_linear_256_3203" x1="130.81" y1="123.949" x2="130.81" y2="130.029" gradientUnits="userSpaceOnUse">
<stop stop-color="#017BC5"/>
<stop offset="1" stop-color="#003B5F"/>
</linearGradient>
<linearGradient id="paint2_linear_256_3203" x1="129.062" y1="142.357" x2="129.062" y2="148.474" gradientUnits="userSpaceOnUse">
<stop stop-color="#017BC5"/>
<stop offset="1" stop-color="#003B5F"/>
</linearGradient>
</defs>
</svg>
