<svg width="300" height="300" viewBox="0 0 300 300" fill="none" xmlns="http://www.w3.org/2000/svg">
<path d="M73.623 76.1025C68.8324 76.007 49.6159 77.1671 46.2392 74.7601C39.8459 70.2038 41.3026 60.8329 49.6091 59.4677C54.6197 59.2087 75.0504 58.9058 79.4092 59.8843C84.4852 61.0234 89.4375 68.6739 89.9156 73.5818C90.283 77.3493 90.1353 81.7802 90.1353 85.5993L90.1377 189.316H108.84L108.831 143.117C108.83 140.103 107.721 134.434 111.601 134.295C114.861 134.179 118.137 134.23 121.4 134.232L140.415 134.24L140.404 88.4593C140.404 84.9114 139.061 79.2454 143.368 79.2132L197.239 79.1898C207.228 79.1663 207.193 77.2626 207.19 87.3999L207.185 134.24L226.078 134.233C229.147 134.232 232.371 134.171 235.432 134.317C239.017 134.489 237.898 140.209 237.895 143.072L237.889 186.769V189.316C243.827 189.295 248.903 188.45 253.583 192.998C258.772 198.041 258.908 206.221 253.804 211.417C249.487 215.811 245.125 215.462 239.384 215.445L230.412 215.433C233.317 225.364 230.325 235.274 220.042 239.109C204.962 244.734 190.789 230.084 197.337 215.137H131.359C139.698 238.419 109.37 249.75 99.3012 230.66C96.4699 225.293 97.0664 220.494 98.8008 215.137L88.7549 215.148C77.5834 215.192 73.6219 214.621 73.6189 202.412L73.623 76.1025ZM51.6115 64.815C45.9141 64.8911 47.1821 70.365 50.2059 70.6573C52.3805 70.8677 54.8034 70.7845 56.9965 70.7839L70.0342 70.7605C81.9047 70.7112 79.1549 75.2212 79.1502 85.9585L79.1443 199.872C79.1408 202.915 77.7949 209.941 82.5797 209.754C87.8467 209.547 98.3426 210.325 102.846 209.58C112.085 203.596 118.819 203.096 127.676 209.58H201.414C206.396 203.99 216.45 203.374 222.605 207.294C223.748 208.022 224.895 208.956 226.074 209.58H237.378C241.819 209.577 246.596 210.866 250.056 207.309C253.904 203.354 251.414 195.394 245.728 194.972C241.589 194.665 237.168 194.833 233.016 194.832H100.938C97.5223 194.832 84.9369 196.499 84.8438 192.574C84.76 189.044 84.7963 185.433 84.7963 181.891L84.8098 83.8907C84.818 77.565 85.8639 71.5146 80.6479 66.7825C77.5559 63.9771 73.1262 64.8056 69.2438 64.8079L51.6115 64.815ZM147.19 84.4527C144.732 84.5241 145.706 86.6558 145.713 89.3575L145.724 134.24H201.895V113.891V84.4527H184.271L184.286 95.1126C184.29 98.2978 185.282 101.798 181.518 103.063C179.033 102.351 175.943 100.781 173.504 99.7943C172.331 100.319 164.535 105.137 164.059 101.175C163.471 96.2857 163.942 89.3077 163.819 84.4527C158.361 84.3554 152.671 84.455 147.19 84.4527ZM169.038 84.4527V96.1825C173.321 94.0696 173.346 93.7937 177.783 95.7155L179.024 96.1825V84.4527H169.038ZM137.805 139.685V151.501C141.581 149.694 142.29 148.764 146.285 150.727L147.861 151.501V139.685H137.805ZM167.011 139.685C162.453 139.685 157.767 139.625 153.22 139.685L153.232 151.085C153.25 163.386 150.039 157.432 142.62 155.284C140.606 156.163 134.348 160.459 132.798 157.159C132.156 155.791 132.498 142.207 132.502 139.685C126.465 139.685 120.292 139.618 114.265 139.685V171.46V189.316H170.771V139.685C169.527 139.679 168.252 139.657 167.011 139.685ZM176.146 139.685C175.68 140.217 176.147 144.218 176.15 145.179L176.146 189.316H232.517V167.798V139.685C226.845 139.68 220.509 139.536 214.888 139.685L214.902 150.869C214.914 163.841 211.968 157.449 204.171 155.284C196.068 157.79 193.529 163.19 193.54 150.163L193.55 139.685H176.146ZM200.308 139.685H198.899V151.501C202.33 150.109 203.795 148.47 207.185 150.727C207.813 150.918 208.954 151.227 209.503 151.501V139.685H200.308ZM211.442 210.268C204.635 211.403 200.037 217.842 201.174 224.649C202.311 231.456 208.751 236.052 215.558 234.914C222.363 233.776 226.957 227.338 225.82 220.534C224.684 213.729 218.247 209.133 211.442 210.268ZM114.125 210.265C107.282 210.74 102.13 216.688 102.635 223.528C103.14 230.368 109.11 235.494 115.948 234.959C122.744 234.427 127.832 228.502 127.33 221.704C126.828 214.906 120.925 209.792 114.125 210.265Z" fill="url(#paint0_linear_256_3199)"/>
<path d="M213.797 229.622C210.003 229.788 206.799 226.836 206.656 223.041C206.513 219.247 209.485 216.061 213.279 215.94C217.043 215.821 220.196 218.762 220.338 222.524C220.48 226.286 217.558 229.457 213.797 229.622Z" fill="url(#paint1_linear_256_3199)"/>
<path d="M115.806 229.324C112.155 229.81 108.798 227.254 108.295 223.606C107.792 219.958 110.331 216.589 113.976 216.068C117.647 215.544 121.044 218.104 121.551 221.777C122.058 225.45 119.481 228.835 115.806 229.324Z" fill="url(#paint2_linear_256_3199)"/>
<defs>
<linearGradient id="paint0_linear_256_3199" x1="149.909" y1="59.2109" x2="149.909" y2="240.339" gradientUnits="userSpaceOnUse">
<stop stop-color="#017BC5"/>
<stop offset="1" stop-color="#003B5F"/>
</linearGradient>
<linearGradient id="paint1_linear_256_3199" x1="213.497" y1="215.937" x2="213.497" y2="229.628" gradientUnits="userSpaceOnUse">
<stop stop-color="#017BC5"/>
<stop offset="1" stop-color="#003B5F"/>
</linearGradient>
<linearGradient id="paint2_linear_256_3199" x1="114.923" y1="216" x2="114.923" y2="229.383" gradientUnits="userSpaceOnUse">
<stop stop-color="#017BC5"/>
<stop offset="1" stop-color="#003B5F"/>
</linearGradient>
</defs>
</svg>
