<svg width="300" height="300" viewBox="0 0 300 300" fill="none" xmlns="http://www.w3.org/2000/svg">
<path d="M151.07 65.146C149.705 65.395 148.123 65.0909 147.363 63.7995C146.706 62.6839 145.304 50.3575 148.973 48.3594C155.21 47.6954 153.43 59.2766 153.164 63.7034C152.38 64.5565 152.148 64.6813 151.07 65.146Z" fill="url(#paint0_linear_256_3207)"/>
<path d="M100.57 63.2238C101.047 61.1361 101.364 60.4084 103.511 59.9502C106.371 60.157 116.51 71.526 119.161 74.1826C120.937 75.9627 119.486 78.2725 117.141 78.7939C113.64 79.101 101.374 65.5652 100.57 63.2238Z" fill="url(#paint1_linear_256_3207)"/>
<path d="M184.264 78.794C181.849 78.8075 179.779 76.9629 180.818 74.3631C181.362 73.0008 192.764 61.7157 195.271 60.6674C200.395 60.5719 199.711 65.2969 196.087 67.8827C193.833 69.4911 186.313 78.2415 184.264 78.794Z" fill="url(#paint2_linear_256_3207)"/>
<path d="M132.163 103.271C129.422 103.276 110.22 105.5 113.813 98.5941C115.129 96.0652 130.621 85.3174 133.777 82.9572L143.428 75.7865C145.243 74.45 147.759 72.2539 149.858 71.6416C152.172 71.6539 164.932 82.0678 167.648 84.115L179.041 92.702C181.143 94.284 183.234 95.842 185.309 97.4832C187.556 99.2604 186.74 102.905 183.84 103.202C182.118 103.378 180.197 103.287 178.443 103.285L167.827 103.271L167.833 128.783C167.836 139.691 169.921 146.729 156.396 146.761L151.07 146.76C130.807 146.715 132.162 145.947 132.159 127.684L132.163 103.271ZM149.858 78.7941C143.523 82.5025 131.017 92.2238 125.182 97.052C140.275 97.0045 138.211 95.5924 138.202 110.187L138.179 137.33C138.202 142.916 145.081 140.775 150.22 140.789C153.353 140.803 161.581 142.16 161.746 138.411C161.888 135.191 161.83 131.988 161.828 128.773L161.818 109.229C161.816 105.25 160.318 96.95 165.437 97.0086C168.508 97.0432 171.601 97.0561 174.648 97.052C171.756 94.9309 151.16 78.8346 149.858 78.7941Z" fill="url(#paint3_linear_256_3207)"/>
<path d="M98.6627 101.525C95.8701 101.531 83.542 102.334 81.7478 100.341C79.8283 98.2078 81.1636 95.1932 84.6511 95.4158C89.3439 95.4182 94.0789 95.4756 98.771 95.2002C103.06 95.4896 103.404 100.908 98.6627 101.525Z" fill="url(#paint4_linear_256_3207)"/>
<path d="M214.916 101.526L205.403 101.545C203.101 101.548 197.793 102.277 197.446 99.0302C197.145 96.2124 198.726 95.5989 201.154 95.4161L210.078 95.4044C212.016 95.4044 213.762 95.3939 215.742 95.5743C219.448 95.913 219.907 101.426 214.916 101.526Z" fill="url(#paint5_linear_256_3207)"/>
<path d="M70.5592 178.367C63.4535 177.234 50.4866 173.222 43.3141 171.076C37.0094 169.19 40.778 164.9 43.0346 161.557L57.5765 139.678C62.8752 131.773 60.7969 132.504 69.4916 130.274L90.2121 124.978C92.9912 124.267 96.3053 123.212 99.1137 123.159C99.7523 123 102.12 123.144 102.896 123.149L118.941 123.157C120.827 123.16 124.222 122.833 125.725 123.955C127.539 125.309 126.734 128.85 124.365 129.069C122.03 129.286 119.665 129.197 117.315 129.197L103.511 129.185C101.69 131.039 100.839 132.722 99.4312 134.893L79.8345 165.092H219.429C217.883 162.461 216.173 159.966 214.559 157.381L203.79 139.916C201.581 136.322 199.329 132.855 197.238 129.185L183.496 129.198C180.998 129.201 171.182 130.413 173.266 125.109C174.329 122.4 179.059 123.167 181.639 123.165L192.529 123.156C202.126 123.151 203.309 123.01 212.52 125.494L232.859 130.855C240.202 132.73 238.946 133.893 243.289 140.452L253.756 156.274C255.893 159.522 258.712 163.205 260.541 166.621C262.712 170.678 253.642 171.987 251.696 172.535C245.004 174.471 238.029 176.007 231.291 177.828C228.67 178.535 227.391 176.709 226.271 174.633L226.267 240.75C226.39 250.13 218.344 250.657 211.345 250.649L93.699 250.644C86.9525 250.647 74.6883 251.857 73.8193 242.082C73.565 239.224 73.6711 236.176 73.674 233.305L73.6828 188.752C73.6816 184.706 73.4982 179.096 73.6799 175.165C72.6978 176.622 72.1529 177.52 70.5592 178.367ZM204.715 129.77C205.699 131.6 206.879 133.292 207.981 135.055L230.752 171.538C236.344 170.208 242.403 168.265 247.888 167.093C249.477 166.644 251.008 166.218 252.613 165.822C247.317 157.311 240.026 145.631 234.025 137.657C230.349 136.434 226.134 135.475 222.35 134.479L204.715 129.77ZM94.6189 130.257C86.189 132.3 74.523 134.74 66.5144 137.657C65.3824 138.967 64.3986 140.709 63.4406 142.166C58.4469 149.766 52.0468 158.088 47.6499 165.822C49.258 166.258 50.8575 166.699 52.4766 167.093L61.6412 169.61C63.3861 170.091 66.7213 171.092 68.4287 171.149L92.2482 134.61C92.5623 134.139 95.6051 130.236 94.6189 130.257ZM79.8345 171.149L79.8287 233.55C79.8252 240.972 78.1881 244.494 86.6027 244.493L212.351 244.487C214.899 244.487 217.57 245.131 219.429 243.12C220.358 241.353 220.055 234.889 220.054 232.486L220.05 171.149L84.9345 171.138C83.4053 171.136 81.3053 171.07 79.8345 171.149Z" fill="url(#paint6_linear_256_3207)"/>
<path d="M201.154 235.541C199.571 235.655 196.847 235.55 195.164 235.549L164.985 235.547C160.158 235.551 149.936 237.535 149.876 231.393C149.828 225.006 149.86 218.608 149.875 212.222C149.879 210.33 150.975 209.286 152.662 208.774C155.459 208.639 159.41 208.768 162.313 208.769L193.47 208.764C197.451 208.762 203.007 207.394 203.423 212.856C203.755 217.223 205.264 233.239 201.154 235.541ZM160.063 214.971C158.748 214.975 157.425 214.988 156.112 214.971V229.243H193.768H197.238V214.971H160.063Z" fill="url(#paint7_linear_256_3207)"/>
<defs>
<linearGradient id="paint0_linear_256_3207" x1="150.073" y1="48.332" x2="150.073" y2="65.2257" gradientUnits="userSpaceOnUse">
<stop stop-color="#017BC5"/>
<stop offset="1" stop-color="#003B5F"/>
</linearGradient>
<linearGradient id="paint1_linear_256_3207" x1="110.261" y1="59.9502" x2="110.261" y2="78.7991" gradientUnits="userSpaceOnUse">
<stop stop-color="#017BC5"/>
<stop offset="1" stop-color="#003B5F"/>
</linearGradient>
<linearGradient id="paint2_linear_256_3207" x1="189.751" y1="60.666" x2="189.751" y2="78.7941" gradientUnits="userSpaceOnUse">
<stop stop-color="#017BC5"/>
<stop offset="1" stop-color="#003B5F"/>
</linearGradient>
<linearGradient id="paint3_linear_256_3207" x1="149.983" y1="71.6416" x2="149.983" y2="146.761" gradientUnits="userSpaceOnUse">
<stop stop-color="#017BC5"/>
<stop offset="1" stop-color="#003B5F"/>
</linearGradient>
<linearGradient id="paint4_linear_256_3207" x1="91.486" y1="95.2002" x2="91.486" y2="101.69" gradientUnits="userSpaceOnUse">
<stop stop-color="#017BC5"/>
<stop offset="1" stop-color="#003B5F"/>
</linearGradient>
<linearGradient id="paint5_linear_256_3207" x1="208" y1="95.4043" x2="208" y2="101.617" gradientUnits="userSpaceOnUse">
<stop stop-color="#017BC5"/>
<stop offset="1" stop-color="#003B5F"/>
</linearGradient>
<linearGradient id="paint6_linear_256_3207" x1="150.357" y1="123.066" x2="150.357" y2="250.693" gradientUnits="userSpaceOnUse">
<stop stop-color="#017BC5"/>
<stop offset="1" stop-color="#003B5F"/>
</linearGradient>
<linearGradient id="paint7_linear_256_3207" x1="176.909" y1="208.61" x2="176.909" y2="235.856" gradientUnits="userSpaceOnUse">
<stop stop-color="#017BC5"/>
<stop offset="1" stop-color="#003B5F"/>
</linearGradient>
</defs>
</svg>
