<svg xmlns="http://www.w3.org/2000/svg" width="309" height="321" fill="none"><path fill="url(#a)" d="M38.063 144.402c-3.543-.881-4.86-4.794-1.206-6.827 2.082-1.158 4.134-2.378 6.19-3.609l104.42-63.193c2.179-1.348 4.426-2.852 6.76-3.841 1.774-.082 6.752 3.55 8.517 4.605l88.089 53.24c6.808 4.164 13.591 8.144 20.436 12.458 6.238 3.931.878 8.052-1.789 6.649-2.996-1.576-6.218-3.696-9.083-5.461l-.009 100.403c0 3.85.079 7.705.005 11.551-.096 5.055-11.256 3.318-14.858 3.317l-90.243-.004-91.603.005c-3.902.001-14.553 1.821-14.746-3.619-.145-4.093-.073-8.204-.072-12.302l-.003-99.351c-3.336 1.379-7.719 4.941-10.805 5.979m116.164-70.09c-10.704 7.004-22.171 13.697-33.146 20.28l-55.01 33.37c-3.563 2.18-7.103 4.24-10.637 6.486v112.308c7.902.122 16.121-.001 24.05 0l.006-24.191c-.005-4.764-1.736-15.782 4.73-16.581 1.598-.183 3.332-.154 4.945-.156l7.776-.003c7.619-.001 15.246-.055 22.862.076 7.528.129 5.619 11.779 5.618 17.158l-.005 23.697h5.687l-.003-32.897c.009-3.016.174-3.923 2.425-5.925-3.305-3.803-2.462-8.438-2.428-13.256.056-7.874-.12-15.772.083-23.642.181-7.019 7.163-6.166 11.837-6.164l11.21.013 11.777-.013c4.153-.001 11.198-.812 11.729 5.314.837 9.647.282 22.897.151 32.726-.028 2.112-.819 3.409-1.997 5.022 3.301 3.178 2.05 12.037 2.05 16.741l-.004 22.081c2.026-.09 3.466-.114 5.511 0l-.01-31.198c-.078-9.094 1.412-9.778 9.994-9.746l29.16.03c8.911.298 6.722 10.196 6.722 17.102l-.003 23.812h24.621V134.448c-10.343-6.435-20.788-12.577-31.202-18.851l-61.642-37.162c-1.273-.775-5.813-3.741-6.857-4.123m-16.626 97.299c-.001 3.451-.356 32.465.492 33.268 1.258 1.193 31.51 1.931 32.941-.137.964-1.394.532-4.891.52-6.547v-26.584h-13.577v7.573h-6.819v-7.573zm0 40.818v34.327h33.953v-34.327c-4.491-.073-9.075.001-13.577 0 .167 1.836-.017 5.398 0 7.406h-6.819v-7.406c-4.217-.004-9.427-.165-13.557 0m54.026 0h-1.813v34.327h33.089v-34.327c-4.386-.001-8.954-.073-13.324 0v7.406h-6.629v-7.406zm-104.81 0c-1.727.489-.8 30.35-.799 34.327h32.859v-34.327c-4.137.075-8.376-.009-12.523 0v8.436h-6.92v-8.436c-4.003.007-8.674.132-12.617 0"/><path fill="url(#b)" d="M104.803 123.62c.544-2.594 1.119-3.129 3.56-3.448 2.909-.224 8.818-.002 11.945.002l80.208.03c3.778.039 4.95 6.001.121 6.702l-91.896.001c-2.487-.021-3.307-.876-3.938-3.287"/><path fill="url(#c)" d="m200.637 145.194-82.166-.006c-3.423.001-6.808.046-10.261.009-4.275-.047-4.32-6.194.153-6.773l81.49-.007c3.562 0 7.178-.047 10.734.061 4.132.124 4.588 6.182.05 6.716"/><defs><linearGradient id="a" x1="154.425" x2="154.425" y1="66.931" y2="253.988" gradientUnits="userSpaceOnUse"><stop stop-color="#017BC5"/><stop offset="1" stop-color="#003B5F"/></linearGradient><linearGradient id="b" x1="154.312" x2="154.312" y1="120.072" y2="126.907" gradientUnits="userSpaceOnUse"><stop stop-color="#017BC5"/><stop offset="1" stop-color="#003B5F"/></linearGradient><linearGradient id="c" x1="154.436" x2="154.436" y1="138.407" y2="145.212" gradientUnits="userSpaceOnUse"><stop stop-color="#017BC5"/><stop offset="1" stop-color="#003B5F"/></linearGradient></defs></svg>