<?xml version="1.0" encoding="utf-8" ?><svg xmlns="http://www.w3.org/2000/svg" xmlns:xlink="http://www.w3.org/1999/xlink" width="1024" height="1024" viewBox="0 0 1024 1024"><path transform="scale(2 2)" d="M236.557 216.294C235.969 214.421 235.267 212.553 234.567 210.717L205.375 131.834C202.941 125.203 197.059 115.033 208.441 114.063C216.789 113.82 225.573 114.104 233.939 114.191C238.976 114.243 251.477 129.948 255.313 134.078L316.53 200.459C320.649 204.885 327.479 211.726 331.13 216.294C375.537 216.271 417.911 216.905 452.922 248.008C469.974 263.157 465.995 289.992 442.833 295.52C439.154 296.398 432.953 296.023 428.834 296.022L330.179 296.012C327.987 298.189 325.346 301.287 323.129 303.639L256.23 375.478C253.278 378.667 240.224 394.119 237.657 395.285C233.927 396.979 207.284 396.309 204.649 395.325C196.735 392.368 205.83 377.521 207.845 372.181C213.937 356.032 220.357 339.972 226.671 323.904C229.336 316.658 232.523 308.904 235.329 301.667C225.375 299.228 212.651 297.026 202.452 295.005L159.287 286.42C144.678 283.636 129.622 281.006 115.105 277.84C109.071 286.414 102.754 294.778 96.5814 303.251C92.6243 308.682 87.3455 319.884 80.4275 320.256C73.1667 320.646 54.5143 323.18 51.3451 315.92C51.7984 306.425 61.7756 271.365 64.4622 260.223C38.3239 248.236 43.583 232.543 67.4323 225.429C65.3968 218.03 49.9191 166.102 50.364 163.365C51.3907 157.048 61.6849 158.951 66.1758 158.938C80.7298 158.894 81.3672 155.461 89.976 167.063L98.1136 178.008C107.183 190.021 118 203.981 126.522 216.294L236.557 216.294ZM214.795 124.725C215.612 128.755 217.429 133.034 218.898 136.936L223.979 150.726C231.93 172.58 240.4 194.449 248.197 216.294L316.439 216.294L257.403 152.734C248.796 143.413 240.426 133.9 231.634 124.725L214.795 124.725ZM63.4603 169.753C63.5597 174.655 67.3504 185.876 68.8321 191.083L76.6432 219.155C77.5734 222.523 81.3419 229.489 78.4539 232.564C76.109 235.06 52.5363 239.017 59.4918 245.606C64.7769 250.614 104.818 264.128 116.908 267.234C125.023 269.319 133.502 270.571 141.734 272.153L216.578 286.703C223.47 288.114 233.14 290.317 240.024 290.941C241.107 287.275 242.411 283.523 243.892 280.243C246.486 274.497 257.907 274.386 252.579 287.839L221.114 368.277C219.145 373.238 216.38 379.782 214.795 384.77C220.957 384.785 227.204 384.848 233.357 384.77C257.098 357.227 282.961 331.023 307.588 304.281C314.09 297.098 320.847 290.149 327.378 282.992C338.815 270.329 344.036 279.844 339.527 285.061L427.488 285.064C441.568 285.058 459.409 282.894 450.861 262.395L419.589 262.383C413.019 262.385 403.917 262.933 397.703 261.538C381.416 257.883 375.414 242.545 375.756 227.485C369.64 228.012 360.797 226.957 354.376 226.946L141.396 226.93C119.749 226.928 123.716 230.28 111.901 214.566L84.5265 177.603C82.8791 175.411 80.0609 172.102 79.0752 169.753L63.4603 169.753ZM386.664 229.648C385.98 241.232 392.802 251.41 404.788 251.391C416.508 251.371 428.922 251.851 440.595 251.477C432.233 242.279 398.525 232.103 386.664 229.648ZM74.4446 264.435C71.4316 279.606 66.5728 294.567 63.4603 309.484L79.0752 309.484L85.259 300.904C91.6129 292.272 97.9029 282.74 104.384 274.378C94.2445 271.43 84.4816 267.645 74.4446 264.435Z"/><path transform="scale(2 2)" d="M339.527 251.477C336.784 251.281 331.948 251.32 329.757 249.738C326.077 247.08 327.793 240.637 334.55 240.467C347.627 239.672 348.444 248.585 339.527 251.477Z"/><path transform="scale(2 2)" d="M201.659 245.556C202.425 242.435 203.174 241.252 206.369 240.467C208.761 240.454 213.47 240.177 215.527 241.23C220.339 243.692 218.37 249.972 213.614 251.477C207.555 250.665 203.404 252.72 201.659 245.556Z"/><path transform="scale(2 2)" d="M240.024 251.477C237.27 251.248 233.049 251.323 230.639 250.74C224.92 249.358 225.432 242.824 230.445 240.467C233.082 240.428 236.784 240.168 239.302 240.599C245.998 241.746 244.656 248.434 240.024 251.477Z"/><path transform="scale(2 2)" d="M265.465 251.477C260.181 250.946 248.708 252.113 253.236 242.832C253.903 241.464 254.889 240.953 256.273 240.467C258.855 240.389 263.208 240.073 265.615 240.72C271.422 242.281 270.346 249.053 265.465 251.477Z"/><path transform="scale(2 2)" d="M291.384 251.477C285.767 252.042 275.591 251.55 278.536 243.222C279.078 241.691 279.774 241.199 281.198 240.467C288.391 240.346 302.528 241.921 291.384 251.477Z"/><path transform="scale(2 2)" d="M316.439 251.477C313.877 251.324 310.276 251.431 307.869 250.91C302.03 249.644 301.68 243.408 306.72 240.467C309.012 240.344 311.394 240.331 313.688 240.373C320.938 240.506 321.48 247.431 316.439 251.477Z"/></svg>