<svg xmlns="http://www.w3.org/2000/svg" width="182" height="204" fill="none"><path fill="url(#a)" d="M95.112 129.708C48.89 149.177-3.994 112.491.239 62.002 3.2 26.666 30.187 3.412 64.77.098 125.54-3.02 161.91 69.29 118.2 114.103c2.63 3.278 5.424 6.839 8.18 9.989 8.172-7.317 15.842 4.536 20.556 9.953l23.631 26.794c2.518 2.812 5.641 5.812 7.452 9.061 9.789 17.562-6.214 37.972-25.89 32.585-4.707-1.289-9.895-4.861-12.238-9.126-2.703-2.428-5.473-6.03-7.922-8.815l-23.644-26.728c-4.352-4.863-9.398-9.589-2.679-15.637-3.418-4.113-7.014-8.465-10.533-12.471M66.958 5.586c-34.66.92-61.999 29.359-61.063 63.519s29.794 61.102 64.452 60.177c34.655-.925 61.988-29.363 61.052-63.518-.936-34.157-29.787-61.098-64.442-60.178m47.065 112.405c-4.123 3.706-8.723 6.584-13.595 9.243l8.974 10.476.359.374c.814-.158 11.049-8.952 12.415-10.141-2.794-3.22-5.383-6.901-8.153-9.952m17.465 9.952c-3.02 1.108-17.876 14.708-21.567 17.789-4.447 3.711 3.275 9.945 6.344 8.7 1.219-.788 2.354-1.791 3.459-2.73 6.37-5.414 13.481-11.877 20.166-16.836-1.629-2.556-5.086-7.735-8.402-6.923m12.188 10.98c-2.854 2.702-6.687 5.726-9.756 8.259l-15.721 13.032c2.015 2.597 5.139 5.89 7.379 8.44l10.065 11.652c4.129 4.703 10.795 13.65 15.828 16.072 14.324 5.876 28.031-7.564 22.514-21.759-1.177-3.029-5.195-6.956-7.453-9.539z"/><path fill="url(#b)" d="M33.206 38.523c-9.349 10.617-12.765 25.741-9.42 39.331 9.346 37.979 60.19 47.269 82.855 15.032 26.2-37.267-14.72-84.65-56.363-66.785-1.67.516-5.161 3.31-6.833 1.872-7.852-6.754 19.46-11.012 22.841-11.08 11.682-1.253 25.109 3.525 34.206 10.591 22.303 17.321 26.51 49.368 8.774 71.397-17.734 22.102-50.633 25.532-73.064 8.28-22.074-16.978-25.576-49.34-8.432-70.935 1.27-1.295 5.1-6.446 6.966-6.23 7.51.873-.366 7.302-1.53 8.527"/><path fill="url(#c)" d="M44.209 81.407c-3.386 5.533-.631 4 5.565 4l43.16-.007c3.592-.002-2.679-8.6-3.52-10.12L76.028 51.588c-.895-1.551-6.586-12.36-7.778-12.182-.712.106-10.81 19.124-12.1 20.819-1.465 1.922-4.386 2.343-5.29-.43-.795-2.437 7.167-14.448 8.738-17.146 2.35-4.037 3.087-7.494 7.886-8.92 5.31-.634 6.765 3.18 8.906 6.9l21.97 38.66c2.213 3.924 3.089 8.037-1.794 10.905-2.307 1.354-10.052.803-12.794.804H51.758c-4.673 0-12.186 1.33-14.427-3.614-2.013-4.35 5.627-15.687 8.153-19.722 1.901-3.038 6.166-.482 5.184 2.253-1.504 3.635-4.497 7.927-6.46 11.491"/><path fill="url(#d)" d="M69.522 71.523c-1.2.308-3.212-.029-3.622-1.4-.395-1.321-.482-16.435.18-17.453.347-.532.826-.622 1.404-.784 1.36-.264 2.727-.384 3.544.969.312.518 2.257 16.874-1.506 18.668"/><path fill="url(#e)" d="M159.011 69.874c2.545-2.654 16.44-16.794 19.171-17.986.836-.09 1.66.008 2.304.606 2.824 2.62-1.268 5.568-3.104 7.339l-12.296 11.972c-3.726 3.683-5.014 6.78-9.56 2.415a254 254 0 0 0-5.147-4.838c-2.605-2.8-5.658-5.634 0-7.11 1.716.722 6.957 6.03 8.632 7.602"/><path fill="url(#f)" d="M69.216 80.065c-1.454.401-2.968-.418-3.405-1.843s.365-2.933 1.802-3.392a2.8 2.8 0 0 1 2.74.596 2.71 2.71 0 0 1 .811 2.648 2.75 2.75 0 0 1-1.948 1.991"/><path fill="url(#g)" d="M159.012 94.734c1.415-1.286 3.086-3.04 4.474-4.404l8.417-8.224c1.472-1.436 4.508-4.734 6.279-5.442 6.876.353.817 6.59-1.204 8.535a51064 51064 0 0 0-15.794 15.227c-3.729 3.596-7.721-4.111-10.805-5.692-.994-1.236-3.226-3.1-3.238-4.485-.051-6.01 5.596-1.424 7.471.355z"/><defs><linearGradient id="a" x1="90.489" x2="90.489" y1="0" y2="203.365" gradientUnits="userSpaceOnUse"><stop stop-color="#017BC5"/><stop offset="1" stop-color="#003B5F"/></linearGradient><linearGradient id="b" x1="68.613" x2="68.613" y1="16.693" y2="118.105" gradientUnits="userSpaceOnUse"><stop stop-color="#017BC5"/><stop offset="1" stop-color="#003B5F"/></linearGradient><linearGradient id="c" x1="68.566" x2="68.566" y1="33.66" y2="91.161" gradientUnits="userSpaceOnUse"><stop stop-color="#017BC5"/><stop offset="1" stop-color="#003B5F"/></linearGradient><linearGradient id="d" x1="68.7" x2="68.7" y1="51.719" y2="71.628" gradientUnits="userSpaceOnUse"><stop stop-color="#017BC5"/><stop offset="1" stop-color="#003B5F"/></linearGradient><linearGradient id="e" x1="164.316" x2="164.316" y1="51.859" y2="76.356" gradientUnits="userSpaceOnUse"><stop stop-color="#017BC5"/><stop offset="1" stop-color="#003B5F"/></linearGradient><linearGradient id="f" x1="68.467" x2="68.467" y1="74.697" y2="80.167" gradientUnits="userSpaceOnUse"><stop stop-color="#017BC5"/><stop offset="1" stop-color="#003B5F"/></linearGradient><linearGradient id="g" x1="164.259" x2="164.259" y1="76.664" y2="101.372" gradientUnits="userSpaceOnUse"><stop stop-color="#017BC5"/><stop offset="1" stop-color="#003B5F"/></linearGradient></defs></svg>