<?xml version="1.0" encoding="utf-8" ?><svg xmlns="http://www.w3.org/2000/svg" xmlns:xlink="http://www.w3.org/1999/xlink" width="1024" height="1024" viewBox="0 0 1024 1024"><path transform="scale(2 2)" d="M357.316 165.406C354.201 166.099 351.278 165.023 350.758 161.632C349.677 154.578 363.727 153.775 355.905 142.535C348.166 131.413 356.512 116.509 369.383 114.571C375.711 114.367 378.371 121.719 372.601 124.222C367.727 126.337 366.02 123.607 362.563 132.514C364.64 139.824 370.354 143.721 367.947 152.622C366.615 157.548 361.614 163.005 357.316 165.406Z"/><path transform="scale(2 2)" d="M335.715 159.028C334.443 156.885 332.682 155.005 331.471 152.785C327.523 145.542 331.394 135.032 338.552 131.276C352.697 130.393 339.741 144.017 339.845 145.576C340.547 156.139 354.829 155.623 337.281 170.423C336.049 174.603 337.729 177.494 333.049 179.424C321.845 181.6 326.265 165.958 335.715 159.028Z"/><path transform="scale(2 2)" d="M312.442 254.063L312.291 195.059C312.293 182.922 330.792 186.414 340.191 186.438C345.061 186.31 351.298 185.595 353.387 191.283C359.369 207.569 368.101 230.89 371.897 247.746L438.187 247.737C441.237 247.737 444.164 247.714 447.217 247.872C453.654 247.874 458.437 256.406 454.968 261.835C450.437 268.925 444.684 275.834 439.601 282.636L415.3 315.096C409.389 322.915 403.158 330.856 397.518 338.832C418.8 359.078 431.411 335.771 446.738 333.066C450.205 332.455 456.798 331.725 460.047 333.454C462.116 334.648 462.282 338.598 460.865 340.351C458.783 342.926 452.671 342.109 449.459 342.557C442.842 343.48 439.879 347.181 434.866 351.033C424.931 358.413 406.73 358.243 396.948 351.2C390.043 346.229 387.551 342.514 378.482 341.619C362.047 339.996 357.316 353.147 341.767 355.743C316.654 359.581 314.233 342.11 296.003 341.581C286.139 341.295 282.11 346.242 274.772 351.357C260.274 361.462 244.033 356.036 231.257 346.677C213.392 331.012 199.357 353.388 182.307 356.25C154.633 357.781 156.078 341.997 136.858 341.943C120.414 341.896 106.714 368.782 78.6118 351.252C74.8019 348.854 70.6994 345.348 66.6182 343.48C62.494 341.686 57.7136 342.536 53.5768 341.246C46.7045 339.163 52.0888 324.977 74.0039 336.081C70.8503 325.412 67.6972 314.793 65.0792 303.875C59.945 282.463 55.8516 269.394 84.4336 270.02L84.425 244.301C84.4168 226.74 82.5303 227.931 99.2703 227.946L121.529 227.963L121.505 207.731C121.497 190.504 120.519 192.74 136.305 192.744L195.578 192.741C216.068 192.738 216.518 188.447 216.518 208.07L216.503 227.963C231.614 227.96 246.736 228.072 261.843 227.859C272.526 227.709 269.582 235.037 269.582 244.348L269.569 267.708C283.395 263.852 298.636 258.516 312.442 254.063ZM321.999 196.29L322.005 233.652C322.009 239.327 322.212 246.163 321.999 251.703C334.124 249.325 344.781 247.653 357.316 247.746L361.721 247.746C356.984 231.744 351.154 211.672 345.081 196.29C337.51 196.284 329.535 196.144 321.999 196.29ZM134.539 202.798L131.33 202.798C131.321 211.121 131.213 219.657 131.33 227.963L161.694 227.963L164.242 227.963L164.242 202.798L134.539 202.798ZM174.171 202.798C173.998 211.023 174.176 219.685 174.171 227.963L206.564 227.963L206.564 202.798L174.171 202.798ZM97.7592 237.999L94.3036 237.999L94.3036 270.02L256.903 270.02L259.729 270.02L259.729 237.999L97.7592 237.999ZM353.342 257.733C328.146 260.097 315.542 264.151 290.995 271.537C270.891 277.586 270.362 279.99 249.142 279.987L83.1907 279.968C68.1414 280.103 69.5057 282.88 73.1244 296.267L83.9896 335.908C84.6431 338.26 85.6618 342.286 86.5525 344.41C100.823 350.996 107.841 344.777 118.466 337.673C146.555 318.891 160.483 348.777 179.015 346.473C192.748 345.952 197.63 333.048 213.713 332.082C237.256 330.668 238.013 346.107 255.623 346.511C274.205 346.938 281.252 323.777 307.946 333.853C319.452 338.197 322.417 346.645 336.371 346.303C353.244 345.888 361.789 323.977 388.646 333.796C399.821 319.424 411.013 303.96 422.042 289.348L438.823 267.223C441.148 264.145 443.835 260.847 446.041 257.733L384.12 257.726C374.412 257.725 362.924 257.43 353.342 257.733Z"/><path transform="scale(2 2)" d="M126.605 264.437C117.455 264.51 117.66 247.155 125.418 245.77C134.042 244.848 134.641 262.354 126.605 264.437Z"/><path transform="scale(2 2)" d="M161.694 264.437C151.849 265.651 152.014 248.989 159.076 245.77C168.935 244.772 168.934 262.413 161.694 264.437Z"/><path transform="scale(2 2)" d="M196.635 264.437C186.59 266.07 186.479 249.149 193.607 245.77C203.156 244.758 203.506 261.21 196.635 264.437Z"/><path transform="scale(2 2)" d="M231.006 264.437C221.234 265.318 221.134 248.832 228.291 245.77C237.543 244.796 238.534 261.228 231.006 264.437Z"/><path transform="scale(2 2)" d="M220.776 381.253C203.79 378.473 198.433 393.756 181.862 395.975C157.93 399.179 154.729 381.701 138.201 381.262C126.058 380.939 123.107 386.867 114.162 391.915C101.315 399.164 85.0571 396.539 73.5487 388.051C69.5274 385.086 66.4473 382.635 61.4026 381.836C58.1282 381.318 45.3263 379.946 52.4025 372.887C55.7693 369.528 68.9996 373.27 72.4071 375.065C81.0813 379.634 82.8979 385.051 94.2525 386.17C113.146 388.032 114.846 373.075 132.855 371.781C158.519 369.937 159.211 386.612 176.299 386.609C195.382 386.605 202.23 363.556 228.06 373.159C240.774 377.885 243.827 388.012 261.645 385.544C273.193 383.944 276.716 371.304 293.275 370.763C312.493 368.354 318.751 383.819 331.316 385.593C344.354 387.433 348.656 381.435 358.894 375.67C368.457 370.286 386.757 370.423 395.405 377.224C401.622 382.112 403.99 385.77 412.694 386.472C433.245 388.925 432.594 368.875 457.174 370.809C460.601 371.078 462.299 373.048 461.746 376.766C460.979 381.921 453.911 379.743 450.331 380.665C442.944 381.808 440.092 386.734 434.439 390.709C423.948 398.085 407.893 398.283 396.991 391.64C391.109 387.938 389.025 383.05 381.034 381.847C357.242 378.266 345.105 408.901 317.101 390.25C297.911 377.47 295.106 375.646 274.767 390.578C263.19 399.076 242.491 396.295 232.12 386.77C229.183 384.072 224.755 381.946 220.776 381.253Z"/></svg>