<svg xmlns="http://www.w3.org/2000/svg" width="305" height="300" fill="none"><path fill="url(#a)" d="M80.834 102.418c-9.959-26.58 8.36-55.71 37.757-56.098l.227-.033c9.841-1.333 20.714 3.795 28.259 9.515-1.61 1.58-3.144 3.08-4.822 4.587-14.366-13.871-40.924-8.498-51.887 7.435-5.904 8.414-7.757 21.092-4.042 30.75 2.516 6.543 2.884 6.116-3.525 10.356-2.672 1.768-5.48 3.875-8.207 5.646-3.193 2.075-5.7-1.795-7.927-3.791-4.224 7.491-9.216 15.368-13.115 22.891 9.252 2.439 20.112 5.952 29.055 9.085-.695-2.795-2.125-6.345-3.1-9.119-1.845-5.258-.522-5.345 3.684-8.175l7.38-4.92c3.315-2.193 6.184-5.677 9.805-3.2 8.697 5.951 16.575 6.409 26.666 5.961 4.63-1.781 7.732-2.593 12.413-4.916.91 1.69 2.183 3.462 3.248 5.097-10.276 7.69-26.792 7.678-38.312 3.215-1.935-.75-4.626-2.362-6.539-3.396-3.13 1.981-9.484 6.409-12.304 8.705.65 1.526 4.759 13.036 4.868 14.378.3 3.707-2.325 4.591-5.306 3.689-12.147-3.673-24.41-7.207-36.421-11.263-1.814-.736-4.045-2.26-2.81-4.552 5.206-9.664 10.926-19.043 16.353-28.584 3.827-6.033 6.66-2.226 10.92 2.405 2.36-2.105 5.13-3.735 7.682-5.668"/><path fill="url(#b)" d="M207.723 124.35c-3.251 4.031-9.73 8.469-15.095 7.493-5.609-1.02-5.93-7.973-10.655-8.609-3.412-.459-5.376 4.019-7.727 5.806-4.739 3.601-9.417-.014-13.625-2.441-2.877-1.66-6.295-2.968-8.372-5.656-7.558-9.78 8.797-14.403-2.361-14.959-10.129-.505-9.628-11.652-9.446-19.302.262-10.947 11.017-8.058 12.661-10.103.655-.814-1.857-3.712-2.313-4.636-2.869-5.815 2.2-9.55 5.927-13.103 2.933-2.796 6.011-6.626 10.407-6.842 6.72-.33 8.566 7.099 12.229 6.623 5.023-.652 2.88-8.09 11.747-9.502 3.697-.404 8.923 3.472 12.366 4.898 5.616 2.327 8.603 6.967 5.899 12.996-2.73 7.355 8.135 4.7 10.796 5.562 6.597 2.138 6.344 7.518 6.757 13.096.794 10.72.399 9.587-7.588 14.088 2.262 2.435 9.665 6.84 12.854 8.327 2.493-6.328 5.748-8.286 9.749-1.823l15.408 25.234c3.582 5.925 1.207 6.375-4.602 8.213l-25.661 8.032c-1.587.509-15.025 6.092-13.186-.217 1.395-4.783 2.991-10.923 4.765-15.512-.376-.829-9.371-6.641-10.934-7.663M191.1 55.063c-3.607 2.767-3.89 10.667-13.414 9.488-6.875-.852-7.949-8.614-11.876-5.708-1.287.952-9.359 8.35-9.606 9.14.038 3.209 6.966 6.511.925 13.174-7.129 7.863-12.028-6.696-9.572 16.89.534 2.861 5 1.283 7.018 1.883 4.211 1.252 6.771 5.651 5.32 9.865-.722 2.098-4.82 5.25-2.555 7.427 3.594 2.675 8.033 5.154 12.049 7.111.758.369 4.782-4.541 5.85-5.255 11.477-7.671 16.741 6.726 19.167 6.601 5.99-1.139 11.035-9.781 13.439-8.679 2.614 1.199 5.347 3.251 7.742 4.895l4.982 3.466c1.627 1.112 4.494 2.459 4.812 4.634.294 2.012-2.829 10.387-3.598 12.766l16.423-5.111c3.799-1.211 9.07-3.015 12.861-3.974-1.034-2.33-4.464-7.598-5.966-10.112l-4.403-7.418c-.986-1.664-2.228-3.849-3.403-5.361-1.366 2.005-2.473 4.161-4.981 4.657l-.13.024c-2.526-.634-17.476-10.306-18.223-11.459-2.139-3.306.161-8.264 3.336-10.012 1.19-.655 2.936-.997 3.737-2.112.453-1.931-.355-10.57-1.266-12.675-.926-1.622-3.914-.755-5.229-.604-6.637.761-12.589-4.809-11.794-11.423.318-2.644 3.314-4.892.023-6.567-2.029-1.032-9.984-5.676-11.668-5.55"/><path fill="url(#c)" d="M187.938 91.218c7.63-1.913 5.018-12.792-2.684-11.558-6.598 1.058-4.01 7.266-5.859 9.63-1.837 2.346-5.175.288-5.415-2.195-.679-7.017 4.374-12.796 11.399-13.503 12.086-1.082 20.535 15.81 5.006 23.405.009 8.872-6.124 6.261-6.408 3.286-.26-1.835.017-3.853-.121-5.677-.281-3.721.963-3.106 4.082-3.388"/><path fill="url(#d)" d="M107.474 90.68c-11.662-.002-6.685-5.944-4.837-6.104 2.452-.213 5.072-.12 7.57-.12l15.169.01c11.361-.238 6.83 6.004 4.63 6.146-2.436.158-4.919.079-7.372.077z"/><path fill="url(#e)" d="M187.784 113.472c-1.863.333-3.644-.891-3.971-2.728s.925-3.587 2.791-3.898c1.85-.31 3.607.913 3.932 2.735s-.905 3.561-2.752 3.891"/><path fill="url(#f)" d="M132.413 197.718c-5.291-8.019-8.618-14.241-9.545-24.028-1.669-17.632 9.467-29.888 27.203-31.393 5.69-.785 13.981 1.526 18.761 4.618 14.677 9.494 15.446 26.844 8.792 41.601-1.466 3.25-3.497 6.239-5.434 9.202 7.487 2.023 14.745 5.457 21.738 8.743 13.267 6.233 25.188 13.147 26.226 28.85.158 2.375.375 13.852-.13 15.757-.785 2.961-4.968 3.82-6.042.762-1.893-5.387 1.943-16.106-2.146-23.994-6.07-11.708-32.79-21.425-44.879-25.222-3.69 3.176-7.634 5.141-12.501 5.767-7.533.637-11.046-1.697-16.92-5.767-9.822 3.098-19.734 8.101-29.486 11.573-4.065 1.709-7.712 5.308-10.866 8.266-5.505 5.164-6.594 8.666-6.585 15.727l.047 8.604c.013 1.543.256 3.69-.402 5.12-1.09 2.371-5.206 2.136-5.861-.496-.566-2.27-.313-17.482.147-19.957 1.502-8.093 11.496-18.035 18.132-21.727 2.158-1.201 4.593-2.025 6.888-2.938l16.62-6.682c1.912-.784 4.293-1.867 6.243-2.386m17.658-49.125c-36.899 4.349-18.01 56.185 4.261 53.244l.124-.017c18.672-3.594 29.455-38.767 11.36-49.268-5.013-2.909-9.906-4.525-15.745-3.959"/><path fill="url(#g)" d="M195.86 253.741c-4.882-.345-3.371-5.722-3.578-9.196-.193-3.26-.099-5.235 3.578-5.875 4.244.635 5.16 13.659 0 15.071"/><path fill="url(#h)" d="M109.26 253.741c-6.006.041-5.503-12.403-1.786-14.23 5.733-.568 5.744 12.095 1.786 14.23"/><defs><linearGradient id="a" x1="96.3" x2="96.3" y1="46.074" y2="150.407" gradientUnits="userSpaceOnUse"><stop stop-color="#017BC5"/><stop offset="1" stop-color="#003B5F"/></linearGradient><linearGradient id="b" x1="199.704" x2="199.704" y1="49.09" y2="150.507" gradientUnits="userSpaceOnUse"><stop stop-color="#017BC5"/><stop offset="1" stop-color="#003B5F"/></linearGradient><linearGradient id="c" x1="186.369" x2="186.369" y1="73.542" y2="103.086" gradientUnits="userSpaceOnUse"><stop stop-color="#017BC5"/><stop offset="1" stop-color="#003B5F"/></linearGradient><linearGradient id="d" x1="116.383" x2="116.383" y1="84.436" y2="90.71" gradientUnits="userSpaceOnUse"><stop stop-color="#017BC5"/><stop offset="1" stop-color="#003B5F"/></linearGradient><linearGradient id="e" x1="187.174" x2="187.174" y1="106.798" y2="113.527" gradientUnits="userSpaceOnUse"><stop stop-color="#017BC5"/><stop offset="1" stop-color="#003B5F"/></linearGradient><linearGradient id="f" x1="152.198" x2="152.198" y1="142.143" y2="253.746" gradientUnits="userSpaceOnUse"><stop stop-color="#017BC5"/><stop offset="1" stop-color="#003B5F"/></linearGradient><linearGradient id="g" x1="195.805" x2="195.805" y1="238.67" y2="253.741" gradientUnits="userSpaceOnUse"><stop stop-color="#017BC5"/><stop offset="1" stop-color="#003B5F"/></linearGradient><linearGradient id="h" x1="108.369" x2="108.369" y1="239.493" y2="253.741" gradientUnits="userSpaceOnUse"><stop stop-color="#017BC5"/><stop offset="1" stop-color="#003B5F"/></linearGradient></defs></svg>