<svg xmlns="http://www.w3.org/2000/svg" width="302" height="303" fill="none"><path fill="url(#a)" d="m158.25 220.032-79.642.013c-2.672.006-6.316.154-8.85-.228-9.885-1.49-7.69-16.292-7.687-23.571l.003-135.337c-.002-3.715-1.375-11.384 1.777-13.113 1.824-.125 5.297-.002 7.28-.002h86.694c1.835 0 8.139-.09 10.404.146.269.1 27.63 26.075 31.004 30.695v72.787c1.807.434 3.413 1.637 5.042 2.509 7.817 4.187 16.425 6.72 25.117 8.245 12.54 2.2 10.778-2.212 10.781 13.744l.006 27.569c.034 15.971-5.003 25.242-17.591 35.715-4.883 3.944-18.728 14.071-24.847 16.047-3.661-1.398-9.553-5.296-12.884-7.575-9.891-6.765-22.231-15.941-26.607-27.644M98.576 53.353H67.525l-.007 150.832c-.008 12.357 1.61 10.438 12.434 10.435l76.733-.008c-.401-2.521-.66-4.267-.708-6.852l-.003-37.087c.003-6.922-.893-6.964 6.233-7.927 10.954-1.48 22.459-4.897 31.532-11.324v-69.58l-20.524.006c-2.358.004-4.83.552-6.866-.006-2.54-1.89-1.513-7.53-1.509-10.818l.006-17.671zm71.726 4.11v19.141h19.454c-4.421-4.124-15.188-16.347-19.454-19.14m26.552 98.736c-12.039 7.378-21.416 10.277-35.382 12.206l-.004 33.234c.001 4.849-.233 9.089 1.198 13.809 4.583 15.116 22.333 26.051 35.075 33.508l1.492-.713c13.719-8.966 31.065-17.82 34.942-35.455.705-3.2.446-12.135.446-15.891l-.001-28.492c-11.054-1.334-21.856-3.899-31.788-9.029-1.146-.562-5.289-3.18-5.978-3.177"/><path fill="url(#b)" d="M86.928 87.26c-2.292-2.232-2.054-4.76 1.295-5.418l47.447.02c3.61-.08 4.038 4.871.324 5.399l-43.124.007c-1.88.011-4.117.122-5.942-.007"/><path fill="url(#c)" d="m173.295 102.623-75.1.004c-3.37 0-6.74.041-10.107-.07-3.719-.123-3.373-5.146.135-5.359 17.841-.196 36.078-.003 53.941-.003h20.455c3.599 0 7.188-.022 10.792.048 3.33.065 3.65 4.942-.116 5.38"/><path fill="url(#d)" d="M174.096 117.762c-1.759.157-6.787.004-8.768.003l-62.19-.001c-3.625 0-12.18.143-15.992-.2-1.515-.137-3.033-3.82.578-5.278l78.144-.007c2.415-.001 5.613-.17 7.95.133 2.973.387 2.776 3.915.278 5.35"/><path fill="url(#e)" d="m172.182 132.714-83.94.017c-2.966-.022-5.002-5.223 1.366-5.471l83.242-.001c4.382-.135 4.416 5.488-.668 5.455"/><path fill="url(#f)" d="M174.096 148.243c-2.719.176-7.827.002-10.769.002l-73.418-.019c-.812-.094-2.543.052-3.2-.461-1.96-1.531-1.203-4.224 1.016-5.014l78.122-.007c2.417-.001 6.033-.199 8.302.232 2.511.479 2.401 3.976-.053 5.267"/><path fill="url(#g)" d="M121.197 191.135c-1.093.102-2.867.02-4.012.015l-20.969-.013c-3.716.02-10.27 1.466-10.095-3.668.306-8.968-.385-18.171.296-27.082.072-.941 1.102-1.562 1.806-1.945 4.81-.316 3.349 7.265 3.35 10.755l-.008 16.496 19.719-.003c2.994 0 7.064-.192 9.925.264 2.285.364 2.723 3.821-.012 5.181"/><path fill="url(#h)" d="M196.408 220.032c7.665-6.7 15.802-15.441 23.119-22.724 1.258-1.252 2.649-2.794 4.2-3.625 3.434-.094 4.396 2.875 2.065 5.357-2.073 2.205-4.315 4.264-6.493 6.376l-16.962 16.693c-5.481 5.359-4.896 6.946-10.567 1.484l-6.489-6.245c-1.678-1.572-4.218-3.416-2.727-5.986 2.926-5.043 10.382 6.311 13.854 8.67"/><defs><linearGradient id="a" x1="151.015" x2="151.015" y1="47.74" y2="255.251" gradientUnits="userSpaceOnUse"><stop stop-color="#017BC5"/><stop offset="1" stop-color="#003B5F"/></linearGradient><linearGradient id="b" x1="112.003" x2="112.003" y1="81.842" y2="87.323" gradientUnits="userSpaceOnUse"><stop stop-color="#017BC5"/><stop offset="1" stop-color="#003B5F"/></linearGradient><linearGradient id="c" x1="130.729" x2="130.729" y1="97.11" y2="102.634" gradientUnits="userSpaceOnUse"><stop stop-color="#017BC5"/><stop offset="1" stop-color="#003B5F"/></linearGradient><linearGradient id="d" x1="130.753" x2="130.753" y1="112.231" y2="117.833" gradientUnits="userSpaceOnUse"><stop stop-color="#017BC5"/><stop offset="1" stop-color="#003B5F"/></linearGradient><linearGradient id="e" x1="130.745" x2="130.745" y1="127.257" y2="132.731" gradientUnits="userSpaceOnUse"><stop stop-color="#017BC5"/><stop offset="1" stop-color="#003B5F"/></linearGradient><linearGradient id="f" x1="130.783" x2="130.783" y1="142.698" y2="148.322" gradientUnits="userSpaceOnUse"><stop stop-color="#017BC5"/><stop offset="1" stop-color="#003B5F"/></linearGradient><linearGradient id="g" x1="104.597" x2="104.597" y1="158.432" y2="191.34" gradientUnits="userSpaceOnUse"><stop stop-color="#017BC5"/><stop offset="1" stop-color="#003B5F"/></linearGradient><linearGradient id="h" x1="204.586" x2="204.586" y1="193.681" y2="226.989" gradientUnits="userSpaceOnUse"><stop stop-color="#017BC5"/><stop offset="1" stop-color="#003B5F"/></linearGradient></defs></svg>