<?xml version="1.0" encoding="utf-8" ?><svg xmlns="http://www.w3.org/2000/svg" xmlns:xlink="http://www.w3.org/1999/xlink" width="1024" height="1024" viewBox="0 0 1024 1024"><path transform="scale(2 2)" d="M407.573 245.194C405.391 240.273 401.347 233.397 398.475 228.711C367.666 178.521 349.142 169.743 291.158 169.74L77.9332 169.738C74.4411 169.739 70.8289 169.883 67.3536 169.756C61.0734 169.527 59.2707 161.131 66.3478 160.138C66.4864 160.134 66.6249 160.13 66.7634 160.126L288.223 160.129C323.709 160.128 352.806 160.094 380.321 187.288C396.259 202.798 410.397 230.181 421.777 249.938L432.056 268.028C440.448 282.813 447.905 297.838 430.242 310.558C424.1 314.982 418.021 315.156 410.707 315.047L353.625 315.04C359.702 325.124 359.281 331.041 354.403 341.345L433.996 341.322C437.369 341.31 440.733 341.253 444.104 341.367C451.243 341.15 451.399 350.676 443.196 351.064C436.998 351.357 431.178 351.272 425.132 351.269L69.0686 351.309C59.7135 351.32 60.9183 341.553 67.1073 341.541C71.4862 341.301 75.5787 341.344 79.8683 341.342L171.298 341.345C167.783 334.403 166.333 330.762 167.854 322.812C168.841 319.157 169.231 318.265 171.298 315.04L95.1805 315.042C86.0364 315.04 76.1941 315.136 67.018 315.002C62.8586 314.941 56.1737 305.017 73.2774 305.185L401.277 305.205C412.589 305.211 426.953 307.724 430.724 293.46C432.808 285.583 426.609 278.323 422.918 271.807L413.475 254.956L356.598 254.956C353.159 251.266 349.129 247.533 345.524 243.935L325.652 223.886C322.009 220.19 309.667 211.1 315.451 205.9C320.007 201.804 324.454 208.87 327.558 211.779C337.806 221.384 351.091 234.397 360.307 245.194L407.573 245.194ZM190.521 315.04C170.73 315.724 174.723 342.918 191.811 341.345C210.572 339.838 208.588 312.834 190.521 315.04ZM331.837 315.04C319.429 317.115 315.436 331.893 325.316 339.85C327.514 341.621 333.861 341.221 336.902 341.345C355.038 338.791 349.365 311.86 331.837 315.04ZM211.775 315.04C216.23 325.915 216.325 330.804 211.008 341.345L291.82 341.339C294.461 341.34 312.366 341.66 313.363 341.345C308.707 331.585 307.847 324.188 314.665 315.04L211.775 315.04Z"/><path transform="scale(2 2)" d="M120.496 246.584C111.439 251.607 101.754 249.526 91.5329 249.728C82.6188 249.669 64.6224 251.996 62.7914 239.088C61.9068 232.852 62.4452 225.716 62.3338 219.36C62.1301 207.749 59.5476 193.157 74.2194 190.17C86.3624 189.639 103.086 189.555 114.85 190.621C116.443 190.765 119.18 192.786 120.496 193.77C127.417 188.014 144.034 190.117 153.11 190.161C161.211 190.201 166.88 188.975 173.785 193.77C178.309 189.838 181.224 190.078 187.017 190.169C198.27 190.346 218.198 187.437 226.679 193.77C232.824 188.195 249.129 190.062 257.427 190.167C270.78 190.336 284.02 188.776 283.859 206.417C283.762 217.117 284.258 227.961 283.638 238.625C283.304 244.383 276.849 248.872 271.703 249.739L248.018 249.748C239.565 249.742 233.811 251.104 226.679 246.144C219.149 251.774 187.123 250.89 180.065 249.374C177.677 248.86 175.738 247.535 173.785 246.144C169.251 249.686 165.915 249.828 160.345 249.744C149.922 249.587 128.397 252.139 120.496 246.584ZM89.1863 199.98C85.6148 199.975 75.1627 199.401 72.989 201.359C70.9501 207.148 72.8171 230.258 72.672 237.617C72.6173 240.389 82.0765 239.802 84.1721 239.802L99.3488 239.784C115.313 239.886 115.579 242.028 115.599 225.377L115.59 206.46C115.533 198.276 110.193 199.997 103.23 199.977L89.1863 199.98ZM129.315 199.98C126.794 200.767 125.519 201.898 125.543 204.633C125.581 208.961 123.616 239.27 128.015 239.477C140.014 240.041 154.233 239.85 166.05 239.784C171.051 237.502 169.017 210.346 168.503 204.904C168.307 202.832 167.466 201.462 166.05 199.98C154.483 199.939 140.729 199.612 129.315 199.98ZM182.51 199.98C175.728 201.348 178.889 223.15 178.762 230.053C178.69 233.933 177.874 239.748 183.278 239.786C193.752 239.861 208.473 240.755 218.552 239.784C220.757 239.138 221.275 237.306 221.459 235.226C221.884 230.434 223.644 202.653 219.515 200.623C217.244 199.507 187.343 199.797 182.51 199.98ZM234.609 199.98C229.462 203.351 231.671 229.249 231.829 235.605C231.965 241.112 240.271 239.794 243.907 239.793L257.976 239.792C261.031 239.793 269.3 240.087 271.703 239.784C275.735 237.395 274.265 228.471 274.263 224.405L274.24 203.097C273.656 202.183 272.532 200.363 271.34 200.277C261.216 199.546 244.938 199.217 234.609 199.98Z"/></svg>