<?xml version="1.0" encoding="utf-8" ?><svg xmlns="http://www.w3.org/2000/svg" xmlns:xlink="http://www.w3.org/1999/xlink" width="1024" height="1024" viewBox="0 0 1024 1024"><path transform="scale(2 2)" d="M72.2025 297.061C54.0885 296.228 57.1648 278.321 57.1629 265.88L57.1643 185.994C57.1635 172.627 53.0559 153.367 70.4699 150.492C70.8369 150.469 71.2575 150.437 71.6242 150.439L329.234 150.467C349.529 150.38 352.559 154.457 352.489 174.372L352.467 188.698L394.672 188.699C419.196 188.678 429.399 185.831 438.199 210.552L450.957 246.071C452.732 251.068 455.453 256.504 455.465 261.891L455.491 321.725C455.497 337.664 453.212 335.32 437.267 335.301L412.956 335.277C410.381 352.146 395.061 362.801 378.339 359.174C367.098 356.266 358.595 346.894 357.366 335.277L332.843 335.277C327.574 368.203 281.33 368.012 276.997 335.277L159.025 335.277C152.66 369.336 108.684 368.416 102.978 335.277C95.7948 336.122 86.2149 334.603 78.7669 335.403C69.5063 336.125 72.1807 323.956 72.2025 317.426C68.2841 317.314 64.2958 317.553 60.3101 317.426C57.3471 314.828 55.6011 311.043 58.5758 307.799C60.9117 305.253 68.9046 306.034 72.2025 306.067L72.2025 297.061ZM99.1863 161.4L81.7104 161.384C76.8835 161.384 67.9857 159.533 67.8665 166.498C67.7157 175.314 67.7806 184.148 67.779 192.969L67.78 269.48C67.7834 277.893 65.008 285.888 75.3011 285.966L311.375 286.005L328.386 286.022C332.693 286.033 340.973 287.845 341.285 281.602C341.653 274.248 341.513 266.813 341.509 259.44L341.515 182.768C341.519 174.091 345.071 161.487 335.674 161.42L99.1863 161.4ZM352.467 199.608C352.252 213.237 352.467 227.468 352.467 241.158L352.467 324.223C354.466 324.179 356.528 324.096 358.518 324.223C364.685 303.939 389.522 297.374 404.537 311.528C408.495 315.259 410.266 319.71 412.956 324.223L425.255 324.223L444.64 324.223L444.631 280.108C444.649 263.798 445.608 263.553 440.164 248.393L431.321 223.857C421.48 195.747 422.758 199.608 394.377 199.605L352.467 199.608ZM83.4198 297.061L83.4198 324.223L103.942 324.223C113.102 296.693 149.452 297.374 158.155 324.223L277.836 324.223C283.302 307.28 302.082 298.852 318.082 307.086C326.497 311.799 328.505 316.342 332.843 324.223L341.504 324.223L341.504 297.061L83.4198 297.061ZM304.037 314.849C294.581 315.368 287.356 323.487 287.939 332.939C288.522 342.392 296.69 349.561 306.138 348.914C315.496 348.273 322.583 340.2 322.005 330.838C321.428 321.476 313.403 314.335 304.037 314.849ZM129.492 315.183C120.162 316.017 113.284 324.273 114.151 333.6C115.017 342.928 123.297 349.776 132.621 348.877C141.9 347.983 148.707 339.752 147.845 330.471C146.983 321.19 138.776 314.354 129.492 315.183ZM383.909 315.173C374.605 315.841 367.609 323.933 368.292 333.236C368.976 342.539 377.079 349.521 386.381 348.822C395.661 348.125 402.624 340.044 401.942 330.763C401.26 321.482 393.191 314.506 383.909 315.173Z"/><path transform="scale(2 2)" d="M429.431 265.182C427.544 265.367 423.921 265.211 421.886 265.205L371.174 265.123C366.837 265.203 363.64 263.793 363.672 258.842C363.762 244.677 363.665 230.46 363.722 216.292C363.736 212.777 364.725 210.981 368.047 209.785C381.382 209.123 397.455 209.623 411.051 209.755C419.227 209.834 422.903 229.267 425.592 236.65L430.887 251.116C432.781 256.324 436.446 262.238 429.431 265.182ZM374.493 220.587L374.493 254.267L420.058 254.267C416.607 242.924 412.121 231.711 407.969 220.587L374.493 220.587Z"/></svg>