<svg xmlns="http://www.w3.org/2000/svg" width="246" height="191" fill="none"><path fill="url(#a)" d="M27.512 68.075c-1.342-2.621-3.195-5.025-4.862-7.484l-8.552-12.667c-6.211-9.227-6.505-8.968 2.727-13.224L80.152 5.846c4.146-1.872 9.315-4.453 13.561-5.832 1.316-.11 3.171.391 3.729 1.656 3.469 7.867 6.554 15.954 9.826 23.898 1.883 4.569-4.132 6.2-5.672 3.086-1.331-2.693-2.627-6.036-3.793-8.856l-3.138-7.807c-.534-1.35-1.394-3.35-1.721-4.707-7.913 3.25-16.474 7.406-24.324 10.984L17.8 41.411c4.578 7.668 10.455 15.232 15.23 22.93 1.266-1.199 1.904-1.492 3.481-2.258L75.29 43.47c6.77-3.243 6.106-2.795 13.714-2.79l73.171-.011c3.068 0 5.813 1.86 8.477 3.18l8.933 4.38c11.027 5.366 22.326 10.973 33.441 16.111 4.682-7.908 9.814-15.68 14.249-23.658-2.742-.838-6.214-2.586-8.918-3.8l-16.152-7.295c-16.282-7.38-32.931-14.881-49.38-21.785-2.433 6.689-5.183 13.328-7.854 19.927-1.796 4.438-8.16 2.424-6.303-2.052 2.108-5.848 4.742-11.5 6.882-17.343 1.346-3.677 1.566-7.3 5.375-8.32 2.858.61 5.235 1.921 7.905 3.104l63.848 28.522c3.428 1.645 6.959 3.04 10.394 4.678 5.207 2.483.873 6.325-.935 9.448-4.331 7.482-9.544 14.75-13.703 22.309 8.533 15.05 17.68 29.834 26.425 44.768 1.554 2.56.383 5.426-2.975 5.243-8.097-.441-16.51.232-24.572-.109l.011 58.063c.033 9.023-.294 14.945-10.947 14.96l-162.49-.01c-13.418-.009-15.096-.963-15.054-13.693l.013-59.32-25.113-.012c-7.909-.014-1.03-8.884.557-11.506L21.33 77.928c1.725-2.875 4.22-7.33 6.18-9.853m55.9-21.03c-1.75.276-12.086 5.477-14.35 6.563l-12.993 6.3c-3.159 1.516-6.75 3.101-9.74 4.914h152.184c-8.821-4.736-18.34-8.957-27.356-13.389-8.928-4.387-6.769-4.407-16.887-4.396zM33.032 71.262l-19.232 32.136c-1.566 2.549-3.483 5.506-4.79 8.159l85.583-.001c4.146 0 30.847.99 31.848-.881l13.93-22.074c3.486-5.451 7.848-11.862 11.052-17.339zm129.554 0c6.817 13.104 17.456 27.245 25.176 40.295h48.542c-3.505-6.07-22.051-35.138-23.278-40.295zm-2.484 9.062.004 59.824c.001 1.61.125 5.071-.004 6.5-2.02 2.192-6.127 2.935-6.431-1.056-.199-2.604-.137-5.209-.138-7.819l.001-57.45c-2.34 3.064-5.296 8.096-7.386 11.441l-14.742 23.298c-2.814 4.432-7.432 2.919-12.703 2.919l-83.279-.004c-.006 6.357-.265 65.362.247 65.918.962 1.049 5.135.651 6.6.643h111.263l-.013-14.364c-.001-2.558-.059-5.089.12-7.583.218-3.04 4.052-3.717 5.641-1.794 1.261 1.527.828 7.247.826 9.318l-.006 14.423 42.087.009c2.986.004 5.844.48 8.34-1.331.216-6.744-.001-14.775-.001-21.623l.001-43.616-17.807.006c-10.082.025-7.929 1.192-13.584-7.871l-11.945-19.167c-1.043-1.666-5.965-9.659-7.091-10.621"/><defs><linearGradient id="a" x1="122.768" x2="122.768" y1="0" y2="191" gradientUnits="userSpaceOnUse"><stop stop-color="#017BC5"/><stop offset="1" stop-color="#003B5F"/></linearGradient></defs></svg>